<?xml version="1.0" standalone="no"?>
<!DOCTYPE svg PUBLIC "-//W3C//DTD SVG 1.1//EN" "http://www.w3.org/Graphics/SVG/1.1/DTD/svg11.dtd" >
<!--
2013-9-30: Created.
-->
<svg>
<metadata>
Created by iconfont
</metadata>
<defs>

<font id="iconfont" horiz-adv-x="1024" >
  <font-face
    font-family="iconfont"
    font-weight="500"
    font-stretch="normal"
    units-per-em="1024"
    ascent="896"
    descent="-128"
  />
    <missing-glyph />
    
    <glyph glyph-name="x" unicode="x" horiz-adv-x="1001"
d="M281 543q-27 -1 -53 -1h-83q-18 0 -36.5 -6t-32.5 -18.5t-23 -32t-9 -45.5v-76h912v41q0 16 -0.5 30t-0.5 18q0 13 -5 29t-17 29.5t-31.5 22.5t-49.5 9h-133v-97h-438v97zM955 310v-52q0 -23 0.5 -52t0.5 -58t-10.5 -47.5t-26 -30t-33 -16t-31.5 -4.5q-14 -1 -29.5 -0.5
t-29.5 0.5h-32l-45 128h-439l-44 -128h-29h-34q-20 0 -45 1q-25 0 -41 9.5t-25.5 23t-13.5 29.5t-4 30v167h911zM163 247q-12 0 -21 -8.5t-9 -21.5t9 -21.5t21 -8.5q13 0 22 8.5t9 21.5t-9 21.5t-22 8.5zM316 123q-8 -26 -14 -48q-5 -19 -10.5 -37t-7.5 -25t-3 -15t1 -14.5
t9.5 -10.5t21.5 -4h37h67h81h80h64h36q23 0 34 12t2 38q-5 13 -9.5 30.5t-9.5 34.5q-5 19 -11 39h-368zM336 498v228q0 11 2.5 23t10 21.5t20.5 15.5t34 6h188q31 0 51.5 -14.5t20.5 -52.5v-227h-327z" />
    

    
    <glyph glyph-name="calendar" unicode="&#58889;" d="M843.565023 664.012528l-38.70144 0 0 11.878538c0 34.063817-27.199479 61.799508-61.050448 61.799508l-0.910743 0c-33.857109 0-61.85886-27.735691-61.85886-61.799508l0-11.878538-340.760964 0 0 11.878538c0 34.063817-27.070542 61.799508-60.926628 61.799508l-0.936325 0c-33.856086 0-61.957097-27.735691-61.957097-61.799508l0-11.878538-37.712927 0c-33.857109 0-62.571081-27.357068-62.571081-61.372789l0-591.872119c0-34.062793 28.713972-61.022819 62.571081-61.022819l664.815431 0c33.855062 0 61.582567 26.960025 61.582567 61.022819L905.14759 602.638715C905.146567 636.65546 877.420085 664.012528 843.565023 664.012528L843.565023 664.012528zM705.601858 675.891066c0 20.472264 16.910135 37.240159 37.299511 37.240159l0.910743 0c20.3597 0 36.491099-16.767895 36.491099-37.240159l0-110.12105c0-20.470217-16.131399-36.833907-36.491099-36.833907l-0.910743 0c-20.389376 0-37.299511 16.363689-37.299511 36.833907L705.601858 675.891066 705.601858 675.891066zM241.020844 675.891066c0 20.472264 17.009396 37.240159 37.401842 37.240159l0.932232 0c20.336164 0 36.367279-16.767895 36.367279-37.240159l0-110.12105c0-20.470217-16.031115-36.833907-36.367279-36.833907l-0.932232 0c-20.393469 0-37.401842 16.363689-37.401842 36.833907L241.020844 675.891066 241.020844 675.891066zM843.565023-1.136501 178.748568-1.136501c-6.67605 0-12.429077 5.245468-12.429077 11.904121L166.319491 446.048307l689.708378 0 0-435.280688C856.027869 4.108966 850.241073-1.136501 843.565023-1.136501L843.565023-1.136501zM256.370437 357.020668l113.586988 0 0-55.258535-113.586988 0L256.370437 357.020668 256.370437 357.020668zM454.891839 357.020668l112.563682 0 0-55.258535-112.563682 0L454.891839 357.020668 454.891839 357.020668zM652.389936 357.020668l111.540376 0 0-55.258535-111.540376 0L652.389936 357.020668 652.389936 357.020668zM256.370437 243.43368l113.586988 0 0-54.235229-113.586988 0L256.370437 243.43368 256.370437 243.43368zM454.891839 243.43368l112.563682 0 0-54.235229-112.563682 0L454.891839 243.43368 454.891839 243.43368zM652.389936 243.43368l111.540376 0 0-54.235229-111.540376 0L652.389936 243.43368 652.389936 243.43368zM256.370437 132.916611l113.586988 0 0-57.305147-113.586988 0L256.370437 132.916611 256.370437 132.916611zM454.891839 132.916611l112.563682 0 0-57.305147-112.563682 0L454.891839 132.916611 454.891839 132.916611zM652.389936 132.916611l111.540376 0 0-57.305147-111.540376 0L652.389936 132.916611 652.389936 132.916611zM652.672368 132.543104"  horiz-adv-x="1024" />

    
    <glyph glyph-name="set" unicode="&#58949;" d="M960.351722 453.542957l-44.423791 0c-20.355339 0-41.912765 15.894261-47.967722 35.332452l-25.493148 61.938643c-9.6256 17.933357-5.654261 44.343652 8.66393 58.768696l31.503583 31.432348c14.442852 14.442852 14.442852 37.994852 0 52.384278l-52.375374 52.28633c-14.371617 14.371617-37.896904 14.371617-52.357565 0l-31.485774-31.459061c-14.318191-14.371617-40.808626-18.316243-58.768696-8.690643l-61.867409 25.466435c-19.366957 6.010435-35.332452 27.612383-35.332452 47.994435L590.447304 823.35833C590.456209 843.669148 573.742748 860.382609 553.449739 860.382609l-73.9328 0c-20.399861 0-37.0688-16.713461-37.0688-37.024278l0-44.370365c0-20.382052-15.849739-41.984-35.28793-47.994435l-61.929739-25.466435c-17.968974-9.6256-44.343652-5.7344-58.724174 8.690643l-31.548104 31.459061c-14.416139 14.371617-37.941426 14.371617-52.28633 0l-52.304139-52.28633c-14.416139-14.389426-14.416139-37.941426 0-52.357565l31.405635-31.459061c14.442852-14.416139 18.360765-40.826435 8.690643-58.768696l-25.466435-61.974261c-6.037148-19.420383-27.594574-35.341357-47.967722-35.341357L72.623861 453.542957c-20.328626 0-36.997565-16.624417-36.997565-37.00647l0-73.959513c0-20.355339 16.668939-37.042087 36.997565-37.042087l44.397078 0c20.373148-0.026713 41.903861-15.920974 47.896487-35.314643l25.53767-61.956452c9.581078-17.96007 5.707687-44.468313-8.690643-58.795409l-31.503583-31.432348c-14.318191-14.416139-14.318191-37.959235 0-52.375374l52.402087-52.330852c14.344904-14.39833 37.870191-14.39833 52.28633 0l31.530296 31.503583c14.318191 14.318191 40.737391 18.271722 58.608417 8.548174l62.072209-25.448626c19.447096-6.054957 35.28793-27.612383 35.28793-47.98553l0-44.254609c0-20.33753 16.642226-36.979757 37.0688-36.979757l73.9328 0c20.284104 0 36.997565 16.642226 36.997565 36.979757l0 44.254609c0 20.382052 15.965496 41.930574 35.332452 47.98553l61.983165 25.448626c17.915548 9.723548 44.397078 5.770017 58.804313-8.548174l31.325496-31.503583c14.460661-14.39833 37.985948-14.39833 52.357565 0l52.375374 52.330852c14.442852 14.416139 14.442852 37.968139 0 52.375374l-31.503583 31.432348c-14.318191 14.318191-18.28953 40.826435-8.66393 58.795409l25.493148 61.956452c6.054957 19.39367 27.701426 35.28793 47.967722 35.28793l44.423791 0c20.301913 0 36.92633 16.624417 36.92633 36.997565l0 74.021843C997.278052 436.918539 980.653635 453.542957 960.351722 453.542957M701.50233 379.61015699999996c0-102.177391-82.80153-184.916591-184.9344-184.916591-102.177391 0-184.952209 82.7392-184.952209 184.916591 0 102.123965 82.783722 184.907687 184.952209 184.907687C618.7008 564.5178430000001 701.50233 481.734122 701.50233 379.61015699999996"  horiz-adv-x="1024" />

    
    <glyph glyph-name="close-circled" unicode="&#58903;" d="M512 830C264.6 830 64 629.4 64 382c0-247.4 200.6-448 448-448 247.4 0 448 200.6 448 448C960 629.4 759.4 830 512 830zM728.6 231c3-3 4.6-7 4.6-11.2 0-4.2-1.6-8.4-4.6-11.2l-43.2-43.4c-3.2-3.2-7.2-4.6-11.2-4.6-4 0-8.2 1.6-11.2 4.6L512 316.4l-150.8-151.4c-3-3.2-7.2-4.6-11.2-4.6-4 0-8.2 1.6-11.2 4.6l-43.2 43.4c-3 3-4.6 7-4.6 11.2 0 4.2 1.6 8.4 4.6 11.2l151.4 152-151.8 150c-6.2 6.2-6.2 16.4 0 22.6l43.2 43.4c3 3 7 4.6 11.2 4.6 4.2 0 8.2-1.6 11.2-4.6l151.4-149.4 151.4 149.4c3 3 7 4.6 11.2 4.6 4.2 0 8.2-1.6 11.2-4.6l43.2-43.4c6.2-6.2 6.2-16.4 0-22.6l-151.8-150L728.6 231z"  horiz-adv-x="1024" />

    
    <glyph glyph-name="dub-left" unicode="&#58964;" d="M594.84570313 749.15917969L632.12890625 711.87597656 304.25292969 384 632.12890625 56.124023439999974 594.84570313 18.840820310000026 229.68652344 384ZM757.03027344 749.15917969L794.31347656 711.87597656 466.4375 384 794.31347656 56.124023439999974 757.03027344 18.840820310000026 391.87109375 384Z"  horiz-adv-x="1024" />

    
    <glyph glyph-name="check" unicode="&#58993;" d="M809.93964641 592.65895611c-10.24766244 9.61116166-26.35113197 9.16561111-35.96229361-1.14570138l-339.25491153-361.21418817-185.34902485 182.61207152c-9.99306212 9.86576197-26.16018173 9.73846182-36.02594371-0.25460031-9.86576197-9.99306212-9.73846182-26.16018173 0.25460032-35.96229363l203.9348474-200.87964367c0.06365008-0.06365008 0.19095024-0.12730015 0.25460028-0.19095024 0.06365008-0.06365008 0.12730015-0.19095024 0.19095024-0.2546003 1.59125194-1.52760185 3.56440432-2.41870294 5.41025658-3.43710418 0.89110107-0.50920062 1.71855209-1.33665162 2.67330322-1.71855208 2.99155364-1.1457014 6.1740575-1.78220215 9.35656136-1.78220216 3.30980402 0 6.68325811 0.63650077 9.73846182 1.9731524 1.01840124 0.44555055 1.84585223 1.33665162 2.80060339 1.90950232 1.90950231 1.1457014 3.88265471 2.03680247 5.53755672 3.69170446 0.06365008 0.06365008 0.12730015 0.19095024 0.19095023 0.25460032 0.06365008 0.06365008 0.12730015 0.12730015 0.25460032 0.19095022l357.1405832 380.18191119C820.69650946 566.94432491 820.18730885 583.04779444 809.93964641 592.65895611z"  horiz-adv-x="1024" />

    
    <glyph glyph-name="edit" unicode="&#59128;" d="M326.000622 16.853849l-181.137807 181.137807 500.696096 500.696096 181.137807-181.137807-500.696096-500.696096ZM943.446 719.214l-96.23 96.228c-23.446 23.448-63.116 21.792-88.608-3.7l-90.404-90.406 181.138-181.136 90.404 90.404C965.232 656.096 966.89 695.768 943.446 719.214zM128.042 169.496 64-64 297.474 0.042Z"  horiz-adv-x="1024" />

    
    <glyph glyph-name="x" unicode="&#58927;" d="M294.358 115.553l-50.883 50.882 486.089 486.089 50.883-50.883-486.089-486.089zM243.623 601.566l50.882 50.882 486.089-486.089-50.883-50.883-486.089 486.089z"  horiz-adv-x="1025" />

    
    <glyph glyph-name="add" unicode="&#58942;" d="M863.328262 414.659105l-317.344013-0.099772L545.984249 733.183174c0 17.664722-14.336138 32.00086-32.00086 32.00086s-31.99914-14.336138-31.99914-32.00086l0-318.400215-322.368714 0.17718c-0.032684 0-0.063647 0-0.096331 0-17.632039 0-31.935493-14.239806-32.00086-31.904529-0.096331-17.664722 14.208843-32.031824 31.871845-32.095471l322.59234-0.17718 0-319.167424c0-17.695686 14.336138-32.00086 31.99914-32.00086s32.00086 14.303454 32.00086 32.00086L545.982529 350.559333l317.087703 0.099772c0.063647 0 0.096331 0 0.127295 0 17.632039 0 31.935493 14.239806 32.00086 31.904529S880.960301 414.595458 863.328262 414.659105z"  horiz-adv-x="1024" />

    
    <glyph glyph-name="user" unicode="&#59423;" d="M345.763396 694.345234c23.812335 29.027104 53.188386 47.91222 80.491219 60.169381 13.139252 5.898337 26.89658 10.092869 40.590464 12.890588 15.122419 3.089361 30.256094 4.466732 44.416606 4.552689l0.080841 0 0.656963 0.001023 0.656963-0.001023 0.080841 0c14.160511-0.085958 29.293163-1.463328 44.416606-4.552689 13.693884-2.797719 27.451212-6.992251 40.590464-12.890588 27.303856-12.257162 56.679907-31.142278 80.490196-60.169381 18.919908-23.064298 34.198893-52.305273 41.965787-89.354074 5.513574-26.299993 7.27366-55.94415 4.76349-84.952834-2.38021-27.533077-8.609075-54.831816-19.123546-78.636988-5.731538-12.974499-13.662161-28.107151-24.632004-45.046962-8.782014-13.558807-19.430538-28.127617-32.337499-43.444465-2.281973-4.033873-10.17985-20.394493 5.689582-29.870308 18.24248-10.894118 62.590524-37.638225 103.817484-62.847373 27.00812-16.514115 53.829999-33.085536 73.069179-45.339628 14.011108-8.9263 30.843472-20.164249 44.925189-34.5724 15.693424-16.056698 27.712155-35.671431 29.182646-59.82555 0.432859-7.096628 0.63138-15.47239 0.665149-24.228821 0.035816-9.708106-0.157589-19.244296-0.477884-27.582195-0.740874-19.304671-4.740978-36.20662-14.56881-49.251727-10.765181-14.289448-27.005051-22.819728-51.15303-23.352871l-0.405229 0c-94.846158 0.343831-203.744357 0.515746-327.616596 0.515746s-232.770438-0.171915-327.616596-0.515746l-0.404206 0c-24.14798 0.533143-40.387849 9.063423-51.152007 23.352871-9.827833 13.045107-13.82896 29.947056-14.56881 49.251727-0.320295 8.337899-0.5137 17.875113-0.477884 27.583219 0.031722 8.755408 0.233314 17.130146 0.664126 24.227798 1.471514 24.15412 13.490246 43.767829 29.183669 59.82555 14.08274 14.408151 30.913057 25.647123 44.925189 34.5724 19.237133 12.253068 46.056965 28.822442 73.062016 45.336558 41.229007 25.209148 85.580121 51.955302 103.823624 62.850443 15.869433 9.476839 7.971555 25.836435 5.689582 29.870308-12.904914 15.316847-23.554462 29.885658-32.336476 43.444465-10.970866 16.939811-18.902512 32.072463-24.632004 45.046962-10.514471 23.805172-16.743336 51.103912-19.12457 78.636988-2.51017 29.008684-0.748037 58.652841 4.76349 84.952834C311.565527 642.039961 326.843488 671.281959 345.763396 694.345234"  horiz-adv-x="1024" />

    
    <glyph glyph-name="search" unicode="&#58991;" d="M864.739786 40.4362l-154.089447 155.719574c57.540508 61.012585 93.028766 144.524604 93.028766 236.654908 0 186.854689-145.914254 338.330612-325.908698 338.330612S151.86171 619.665371 151.86171 432.810682 297.775964 94.480071 477.770408 94.480071c73.131601 0 140.638087 25.00551 195.016579 67.230194 0.208754-0.227174 0.416486-0.454348 0.635473-0.675382L828.370461 4.448568c5.003967-5.056156 11.593036-7.588839 18.185174-7.588839 6.502088 0 13.006222 2.463098 17.992793 7.397481C874.592179 14.195559 874.678136 30.394497 864.739786 40.4362zM477.770408 125.179256c-39.7227 0-78.251202 8.073886-114.51615 23.997554-35.121915 15.421224-66.688865 37.524638-93.825922 65.696258-27.214828 28.251438-48.587602 61.166081-63.524802 97.828073-15.488763 38.015825-23.342638 78.426187-23.342638 120.109542 0 41.683355 7.853875 82.09474 23.342638 120.109542 14.937201 36.661991 36.309974 69.575612 63.524802 97.828073 27.137057 28.17162 58.70503 50.275034 93.825922 65.696258 36.264948 15.923668 74.794473 23.997554 114.51615 23.997554 39.7227 0 78.251202-8.073886 114.51615-23.997554 35.121915-15.421224 66.688865-37.524638 93.825922-65.696258 27.214828-28.251438 48.587602-61.166081 63.524802-97.828073 15.488763-38.015825 23.342638-78.426187 23.342638-120.109542 0-41.683355-7.853875-82.09474-23.342638-120.109542-14.937201-36.661991-36.309974-69.575612-63.524802-97.828073-27.137057-28.17162-58.70503-50.275034-93.825922-65.696258C556.021609 133.253142 517.493108 125.179256 477.770408 125.179256z"  horiz-adv-x="1024" />

    
    <glyph glyph-name="delect" unicode="&#58972;" d="M1101.103 436.401l1.833-1.451q-0.904 0.764-1.833 1.451zM-16.383 434.313l3.31 2.622c-3.973-2.764-7.216-6.297-9.57-10.405zM100.029-116.377c-0.294-1.961-0.598-3.908-0.866-5.881 0.551 2.092 0.876 4.497 0.894 6.975zM70.686-144.383zM41.384-112.827q0.318 2.202 0.661 4.405c-0.447-1.865-0.714-4.013-0.738-6.218zM1045.959-105.99c0.37-2.304 0.7-4.621 1.031-6.937-0.090 2.781-0.541 5.423-1.307 7.927zM987.059-121.126c-0.255 1.82-0.522 3.628-0.802 5.436 0.142-2.488 0.562-4.819 1.229-7.043zM1032.122 748.86h-214.314v50.918c0 61.751-50.918 112.605-112.605 112.605h-334.2c-61.751 0-112.605-50.918-112.605-112.605v-50.918h-203.417c-14.524 0-29.061-10.897-29.061-29.061 0-14.524 10.897-29.061 29.061-29.061h69.019v-719.217c0-61.751 50.918-112.605 112.605-112.605h624.79c61.751 0 112.605 50.918 112.605 112.605v719.217h58.123c14.524 0 29.061 10.897 29.061 29.061-3.641 14.537-10.897 29.061-29.061 29.061zM320.147 799.778c0 29.061 25.46 54.482 54.482 54.482h334.2c29.061 0 54.482-25.46 54.482-54.482v-50.918h-443.165v50.918zM915.888-17.533c0-32.69-18.165-65.38-47.226-65.38h-624.79c-29.061 0-61.751 21.793-61.751 50.918l3.628 722.871h730.126v-708.474zM378.27 87.739c14.524 0 29.061 10.897 29.061 29.061v388.682c-3.628 14.524-10.897 29.061-29.061 29.061s-29.061-10.897-29.061-29.061v-388.682c0-18.152 14.537-29.061 29.061-29.061zM559.895 87.739c14.524 0 29.061 10.897 29.061 29.061v388.682c-3.628 14.524-10.897 29.061-29.061 29.061s-29.074-10.897-29.074-29.061v-388.682c0-18.152 14.55-29.061 29.074-29.061zM741.519 87.739c14.524 0 29.061 10.897 29.061 29.061v388.682c-3.628 14.524-10.897 29.061-29.061 29.061s-29.061-10.897-29.061-29.061v-388.682c0-18.152 14.537-29.061 29.061-29.061z"  horiz-adv-x="1084" />

    
    <glyph glyph-name="down" unicode="&#58925;" d="M768 500h-512l256-320 256 320z"  horiz-adv-x="1024" />

    
    <glyph glyph-name="bell" unicode="&#58902;" d="M626.135 65.505c-0.113-63.406-51.113-114.78-114.98-114.78-63.406 0-114.836 51.175-114.949 114.78h229.929z m-38.134 689.572c0 41.155-34.365 74.686-76.759 74.686-42.337 0-76.784-33.444-76.784-74.686 0-4.203 0.373-8.32 1.034-12.319-106.005-35.947-183.056-127.902-183.056-258.488v-143.908s-9.927-125.286-47.344-126.582c-22.277 0-39.373-16.721-39.373-37.33 0-20.776 17.183-37.33 38.395-37.33h614.251c21.3 0 38.365 16.692 38.365 37.33 0 20.752-17.183 37.33-38.365 37.33-38.394 0-47.861 126.582-47.861 126.582V484.27c0 130.724-71.865 222.74-183.511 258.57A74.841 74.841 0 0 1 588 755.077z"  horiz-adv-x="1024" />

    
    <glyph glyph-name="left" unicode="&#59108;" d="M713.268468-65.30612199999996a27.864628 27.864628 0 0 0-19.653619 8.080025L306.036603 326.23948199999995c-14.886035 14.740726-23.14821 34.43016-23.25668 55.467289-0.12689 21.037129 7.934716 40.817638 22.655999 55.703673l383.483998 387.596665c10.864442 10.991332 28.55229 11.063987 39.526226 0.217964 10.972912-10.864442 11.082406-28.55229 0.217964-39.526225l-383.483998-387.615085c-4.222161-4.276397-6.532787-9.990538-6.496971-16.087397 0.01842-6.095835 2.4017-11.792581 6.679119-16.013718l387.56085-383.465579c10.972912-10.864442 11.082406-28.55229 0.217964-39.526225a27.864628 27.864628 0 0 0-19.872606-8.296966z"  horiz-adv-x="1024" />

    
    <glyph glyph-name="play" unicode="&#58971;" d="M512 805.875C279.38867187 805.875 90.125 616.61132813 90.125 384s189.26367188-421.875 421.875-421.875c232.6640625 0 421.875 189.26367188 421.875 421.875s-189.2109375 421.875-421.875 421.875z m0-790.33007813A368.87695313 368.87695313 0 0 0 143.54492187 384c0 203.18554688 165.32226563 368.5078125 368.45507813 368.5078125A368.9296875 368.9296875 0 0 0 880.5078125 384 368.87695313 368.87695313 0 0 0 512 15.544921870000053zM449.29882813 558.18164063c-13.13085938 9.80859375-29.58398438-2.47851563-29.58398438-22.04296876v-304.22460937c0-19.56445313 16.453125-31.8515625 29.58398438-22.04296875l203.97656249 152.13867188a28.10742188 28.10742188 0 0 1 1e-8 44.03320312L449.29882813 558.18164063z"  horiz-adv-x="1024" />

    
    <glyph glyph-name="cancel" unicode="&#58950;" d="M485.1 27.1c-14.5 0-29.6 5.6-43.4 16.9L110 310.1c-6.7 5.2-11.2 11-14.9 15.8-4.5 5.6-7.8 10.6-10.4 15.8-1.5 2.8-2.8 6-4.1 9.3-2.2 5.2-3.5 8.6-4.3 12.3l-1.1 7.8-0.6 5.8c-0.2 4.3-0.2 7.6 0 10.8l0.6 6c0.2 3 0.6 6 1.5 9.1l2.2 6.5c1.9 5.6 4.1 10.8 7.1 16 1.9 3.5 4.1 6.9 6.9 10.4 2.8 3.7 6.1 7.1 9.3 10.4 2.2 2.8 4.5 5.4 7.8 8l334 268.8c12.3 9.9 25.1 16 37.8 17.7 4.3 0.6 8.2 0.4 10.6 0.2h1.1c1.7 0 4.3 0 7.3-0.6 22.7-4.5 47.7-27.7 47.7-78.9v-112.6c8.2-0.4 16.2-1.3 24.2-2.6C785.2 516 947 268.6 949.6 67.7c0-25.1-16-37.6-31.1-38.7-7.8-1.3-25.7 0.6-41.3 25.9-15.3 27.2-33.1 51.6-53.1 72.8-10.8 11.5-19.7 18.8-28.5 26.1l-7.8 6.7c-8 6.3-16.6 11.5-25.3 16.9l-6 3.9c-1.9 1.3-3.7 2.4-5.6 3.5-8 4.3-16.2 8-24.6 11.7l-6.5 3c-3 1.3-5.8 2.8-8.9 3.9-6.3 2.4-12.5 4.1-18.8 6l-12.7 3.9c-3.7 1.1-7.3 2.4-11 3.2-5.8 1.3-11.7 2.2-17.5 3.2l-16 2.8c-4.1 0.6-8 1.5-12.1 1.9-15.6 1.7-31.8 2.6-48.2 2.6h-26.4v-121.2c0-33.5-15.1-61.6-39.3-73.2-7.6-3.8-15.6-5.5-23.8-5.5zM131 357.4l1.1-1.3c3.2-4.1 5.4-6.9 7.8-8.6l331.9-266.2c3.9-3.2 11.2-8 16.6-5.6 6.1 2.8 12.1 14.3 12.1 30V274.9h74.3c18.4 0 36.1-1.1 53.4-3 5.4-0.6 10.6-1.5 15.8-2.4l14.7-2.6c6.9-1.1 14-2.2 20.7-3.9 5-1.1 9.7-2.6 14.7-4.1l11.9-3.7c7.6-2.2 15.1-4.5 22.5-7.3 4.1-1.5 8-3.5 12.1-5.2l5.6-2.6c9.7-4.3 19.4-8.6 28.5-13.6 3-1.7 5.8-3.5 8.6-5.4l4.5-2.8c10.4-6.3 20.3-12.5 29.6-19.7 2.2-1.5 4.3-3.5 6.5-5.4 12.7-10.6 22.9-19.2 32.4-29l3.2-3.7c14.3-14.9 27.4-31.3 39.5-49-23.3 186.3-172.4 364.5-332.5 387-11.9 1.7-23.8 2.6-35.9 2.6H501V661c0 21.2-6.3 31.3-9.7 32-4.8-0.4-9.7-1.7-16.9-7.6L135.7 411.7c-1.5-1.5-3.5-3.2-4.8-5.2-1.3-1.5-2.4-3.2-3.5-5.2-1.3-2.4-2.4-4.8-3.2-7.1l-1.5-5.2-0.4-5 0.2-5.6 0.4-5.4 2.2-5.4c2.8-5.6 4.4-8.2 5.9-10.2z"  horiz-adv-x="1024" />

    
    <glyph glyph-name="minus" unicode="&#58912;" d="M832 448H192a64 64 0 0 1 0-128h640a64 64 0 0 1 0 128z"  horiz-adv-x="1024" />

    
    <glyph glyph-name="right" unicode="&#59424;" d="M310.731532 833.306122a27.864628 27.864628 0 0 0 19.653619-8.080025L717.963397 441.760518c14.886035-14.740726 23.14821-34.43016 23.25668-55.467289 0.12689-21.037129-7.934716-40.817638-22.655999-55.703673l-383.48399799-387.596665c-10.864442-10.991332-28.55229-11.063987-39.52622601-0.217964-10.972912 10.864442-11.082406 28.55229-0.21796401 39.526225l383.48399801 387.615085c4.222161 4.276397 6.532787 9.990538 6.496971 16.087397-0.01842 6.095835-2.4017 11.792581-6.679119 16.013718l-387.56085 383.465579c-10.972912 10.864442-11.082406 28.55229-0.217964 39.526225a27.864628 27.864628 0 0 0 19.872606 8.296966z"  horiz-adv-x="1024" />

    
    <glyph glyph-name="dub-right" unicode="&#59425;" d="M429.15429687 18.84082030000002L391.87109375 56.124023439999974 719.74707031 384 391.87109375 711.87597656 429.15429687 749.1591797 794.31347657 384ZM266.96972656 18.84082030000002L229.68652344 56.124023439999974 557.5625 384 229.68652344 711.87597656 266.96972656 749.1591797 632.12890626 384Z"  horiz-adv-x="1024" />

    


  </font>
</defs>
</svg>
